# xmcd CD database file
#
# Track frame offsets:
#	150
#	17955
#	31832
#
# Disc length: 745 seconds
#
# Revision: 1
# Processed by: cddbd v1.5.1PL0 Copyright (c) Steve Scherf et al.
# Submitted via: CDex 1.40Beta9
#
DISCID=1a02e703
DTITLE=Superchunk - Mower EP
DYEAR=1992
DGENRE=Grunge
TTITLE0=Mower
TTITLE1=On The Mouth
TTITLE2=Fishing (live)
EXTD=YEAR: 1992 ID3G: 6
EXTT0=
EXTT1=
EXTT2=
PLAYORDER=
